solid ebolluyt_HW
	facet normal 0 -1 0
		outer loop
			vertex 0 0 0
			vertex 5 0 0
			vertex 0 0 5
		endloop
	endfacet
	facet normal 0 -1 0
		outer loop
			vertex 5 0 0
			vertex 5 0 5
			vertex 0 0 5
		endloop
	endfacet
	facet normal 1 0 0
		outer loop
			vertex 5 0 0
			vertex 5 5 0
			vertex 5 5 5
		endloop
	endfacet
	facet normal 1 0 0
		outer loop
			vertex 5 0 0
			vertex 5 5 5
			vertex 5 0 5
		endloop
	endfacet
	facet normal 0 0 1
		outer loop
			vertex 5 0 5
			vertex 5 5 5
			vertex 0 0 5
		endloop
	endfacet
	facet normal 0 0 1
		outer loop
			vertex 5 5 5
			vertex 0 5 5
			vertex 0 0 5
		endloop
	endfacet
	facet normal 0 0 -1
		outer loop
			vertex 0 0 0
			vertex 0 5 0
			vertex 5 0 0
		endloop
	endfacet
	facet normal 0 0 -1
		outer loop
			vertex 5 0 0
			vertex 0 5 0
			vertex 5 5 0
		endloop
	endfacet
	facet normal -1 0 0
		outer loop
			vertex 0 0 0
			vertex 0 0 5
			vertex 0 5 5
		endloop
	endfacet
	facet normal -1 0 0
		outer loop
			vertex 0 0 0
			vertex 0 5 5
			vertex 0 5 0
		endloop
	endfacet
	facet normal 0 1 0
		outer loop
			vertex 5 5 0
			vertex 0 5 0
			vertex 0 5 5
		endloop
	endfacet
	facet normal 0 1 0
		outer loop
			vertex 5 5 0
			vertex 0 5 5
			vertex 5 5 5
		endloop
	endfacet
	facet normal 1 0 0
		outer loop
			vertex 102.853 -0.927051 0
			vertex 102.853 0.927051 0
			vertex 102.853 -0.927051 10
		endloop
	endfacet
	facet normal 1 0 0
		outer loop
			vertex 102.853 -0.927051 10
			vertex 102.853 0.927051 0
			vertex 102.853 0.927051 10
		endloop
	endfacet
	facet normal 0 0 -1
		outer loop
			vertex 102.853 0.927051 0
			vertex 102.853 -0.927051 0
			vertex 100 0 0
		endloop
	endfacet
	facet normal 0 0 1
		outer loop
			vertex 102.853 -0.927051 10
			vertex 102.853 0.927051 10
			vertex 100 0 10
		endloop
	endfacet
	facet normal 0.809017 0.587785 0
		outer loop
			vertex 102.853 0.927051 0
			vertex 101.763 2.42705 0
			vertex 102.853 0.927051 10
		endloop
	endfacet
	facet normal 0.809017 0.587785 0
		outer loop
			vertex 102.853 0.927051 10
			vertex 101.763 2.42705 0
			vertex 101.763 2.42705 10
		endloop
	endfacet
	facet normal 0 0 -1
		outer loop
			vertex 101.763 2.42705 0
			vertex 102.853 0.927051 0
			vertex 100 0 0
		endloop
	endfacet
	facet normal 0 0 1
		outer loop
			vertex 102.853 0.927051 10
			vertex 101.763 2.42705 10
			vertex 100 0 10
		endloop
	endfacet
	facet normal 0.309017 0.951057 0
		outer loop
			vertex 101.763 2.42705 0
			vertex 100 3 0
			vertex 101.763 2.42705 10
		endloop
	endfacet
	facet normal 0.309017 0.951057 0
		outer loop
			vertex 101.763 2.42705 10
			vertex 100 3 0
			vertex 100 3 10
		endloop
	endfacet
	facet normal 0 0 -1
		outer loop
			vertex 100 3 0
			vertex 101.763 2.42705 0
			vertex 100 0 0
		endloop
	endfacet
	facet normal 0 0 1
		outer loop
			vertex 101.763 2.42705 10
			vertex 100 3 10
			vertex 100 0 10
		endloop
	endfacet
	facet normal -0.309017 0.951057 0
		outer loop
			vertex 100 3 0
			vertex 98.2366 2.42705 0
			vertex 100 3 10
		endloop
	endfacet
	facet normal -0.309017 0.951057 0
		outer loop
			vertex 100 3 10
			vertex 98.2366 2.42705 0
			vertex 98.2366 2.42705 10
		endloop
	endfacet
	facet normal 0 0 -1
		outer loop
			vertex 98.2366 2.42705 0
			vertex 100 3 0
			vertex 100 0 0
		endloop
	endfacet
	facet normal 0 0 1
		outer loop
			vertex 100 3 10
			vertex 98.2366 2.42705 10
			vertex 100 0 10
		endloop
	endfacet
	facet normal -0.809017 0.587785 0
		outer loop
			vertex 98.2366 2.42705 0
			vertex 97.1468 0.927051 0
			vertex 98.2366 2.42705 10
		endloop
	endfacet
	facet normal -0.809017 0.587785 0
		outer loop
			vertex 98.2366 2.42705 10
			vertex 97.1468 0.927051 0
			vertex 97.1468 0.927051 10
		endloop
	endfacet
	facet normal 0 0 -1
		outer loop
			vertex 97.1468 0.927051 0
			vertex 98.2366 2.42705 0
			vertex 100 0 0
		endloop
	endfacet
	facet normal 0 0 1
		outer loop
			vertex 98.2366 2.42705 10
			vertex 97.1468 0.927051 10
			vertex 100 0 10
		endloop
	endfacet
	facet normal -1 3.23109e-15 0
		outer loop
			vertex 97.1468 0.927051 0
			vertex 97.1468 -0.927051 0
			vertex 97.1468 0.927051 10
		endloop
	endfacet
	facet normal -1 3.23109e-15 0
		outer loop
			vertex 97.1468 0.927051 10
			vertex 97.1468 -0.927051 0
			vertex 97.1468 -0.927051 10
		endloop
	endfacet
	facet normal 0 0 -1
		outer loop
			vertex 97.1468 -0.927051 0
			vertex 97.1468 0.927051 0
			vertex 100 0 0
		endloop
	endfacet
	facet normal 0 0 1
		outer loop
			vertex 97.1468 0.927051 10
			vertex 97.1468 -0.927051 10
			vertex 100 0 10
		endloop
	endfacet
	facet normal -0.809017 -0.587785 0
		outer loop
			vertex 97.1468 -0.927051 0
			vertex 98.2366 -2.42705 0
			vertex 97.1468 -0.927051 10
		endloop
	endfacet
	facet normal -0.809017 -0.587785 0
		outer loop
			vertex 97.1468 -0.927051 10
			vertex 98.2366 -2.42705 0
			vertex 98.2366 -2.42705 10
		endloop
	endfacet
	facet normal 0 0 -1
		outer loop
			vertex 98.2366 -2.42705 0
			vertex 97.1468 -0.927051 0
			vertex 100 0 0
		endloop
	endfacet
	facet normal 0 0 1
		outer loop
			vertex 97.1468 -0.927051 10
			vertex 98.2366 -2.42705 10
			vertex 100 0 10
		endloop
	endfacet
	facet normal -0.309017 -0.951057 0
		outer loop
			vertex 98.2366 -2.42705 0
			vertex 100 -3 0
			vertex 98.2366 -2.42705 10
		endloop
	endfacet
	facet normal -0.309017 -0.951057 0
		outer loop
			vertex 98.2366 -2.42705 10
			vertex 100 -3 0
			vertex 100 -3 10
		endloop
	endfacet
	facet normal 0 0 -1
		outer loop
			vertex 100 -3 0
			vertex 98.2366 -2.42705 0
			vertex 100 0 0
		endloop
	endfacet
	facet normal 0 0 1
		outer loop
			vertex 98.2366 -2.42705 10
			vertex 100 -3 10
			vertex 100 0 10
		endloop
	endfacet
	facet normal 0.309017 -0.951057 0
		outer loop
			vertex 100 -3 0
			vertex 101.763 -2.42705 0
			vertex 100 -3 10
		endloop
	endfacet
	facet normal 0.309017 -0.951057 0
		outer loop
			vertex 100 -3 10
			vertex 101.763 -2.42705 0
			vertex 101.763 -2.42705 10
		endloop
	endfacet
	facet normal 0 0 -1
		outer loop
			vertex 101.763 -2.42705 0
			vertex 100 -3 0
			vertex 100 0 0
		endloop
	endfacet
	facet normal 0 0 1
		outer loop
			vertex 100 -3 10
			vertex 101.763 -2.42705 10
			vertex 100 0 10
		endloop
	endfacet
	facet normal 0.809017 -0.587785 0
		outer loop
			vertex 101.763 -2.42705 0
			vertex 102.853 -0.927051 0
			vertex 101.763 -2.42705 10
		endloop
	endfacet
	facet normal 0.809017 -0.587785 0
		outer loop
			vertex 101.763 -2.42705 10
			vertex 102.853 -0.927051 0
			vertex 102.853 -0.927051 10
		endloop
	endfacet
	facet normal 0 0 -1
		outer loop
			vertex 102.853 -0.927051 0
			vertex 101.763 -2.42705 0
			vertex 100 0 0
		endloop
	endfacet
	facet normal 0 0 1
		outer loop
			vertex 101.763 -2.42705 10
			vertex 102.853 -0.927051 10
			vertex 100 0 10
		endloop
	endfacet
endsolid ebolluyt_HW